<svg width="22" height="22" viewBox="0 0 22 22" fill="none" xmlns="http://www.w3.org/2000/svg">
<circle cx="11" cy="11" r="10.5" stroke="#D2CDC1"/>
<path d="M11.5 6.72223C11.5 6.44609 11.2761 6.22223 11 6.22223C10.7239 6.22223 10.5 6.44609 10.5 6.72223L11 6.72223L11.5 6.72223ZM10.6464 15.6313C10.8417 15.8266 11.1583 15.8266 11.3536 15.6313L14.5355 12.4494C14.7308 12.2541 14.7308 11.9375 14.5355 11.7423C14.3403 11.547 14.0237 11.547 13.8284 11.7423L11 14.5707L8.17157 11.7423C7.97631 11.547 7.65973 11.547 7.46447 11.7423C7.2692 11.9375 7.2692 12.2541 7.46447 12.4494L10.6464 15.6313ZM11 6.72223L10.5 6.72223L10.5 15.2778L11 15.2778L11.5 15.2778L11.5 6.72223L11 6.72223Z" fill="#D2CDC1"/>
</svg>
