<svg width="8" height="9" viewBox="0 0 8 9" fill="none" xmlns="http://www.w3.org/2000/svg">
<path d="M0.202775 7.89581C0.0751119 7.77121 0.00217472 7.60099 1.00801e-05 7.42262C-0.00215456 7.24424 0.066631 7.0723 0.191234 6.94464L5.63638 1.36571L1.55116 1.42005C1.37205 1.42222 1.19941 1.35315 1.07123 1.22804C0.943041 1.10293 0.869806 0.932018 0.867632 0.75291C0.865459 0.573801 0.934525 0.401164 1.05964 0.272978C1.18475 0.144792 1.35566 0.0715567 1.53477 0.0693828L7.24179 0.000127872C7.33058 -0.00131363 7.41877 0.0148381 7.50128 0.0476514C7.58379 0.080465 7.65898 0.12929 7.72253 0.191311C7.78607 0.253332 7.83671 0.327322 7.87151 0.409011C7.90632 0.4907 7.92461 0.578472 7.92532 0.667264L7.99458 6.37429C7.99565 6.46298 7.97925 6.551 7.94631 6.63335C7.91336 6.7157 7.86452 6.79075 7.80257 6.85422C7.74062 6.91769 7.66678 6.96834 7.58525 7.00327C7.50373 7.03821 7.41613 7.05674 7.32744 7.05782C7.23875 7.05889 7.15072 7.04249 7.06838 7.00955C6.98603 6.9766 6.91098 6.92776 6.84751 6.86581C6.78404 6.80386 6.73339 6.73002 6.69846 6.64849C6.66352 6.56697 6.64499 6.47937 6.64391 6.39068L6.59909 2.30534L1.15395 7.88427C1.02934 8.01193 0.85913 8.08487 0.680751 8.08703C0.502372 8.0892 0.330439 8.02041 0.202775 7.89581Z" fill="#777162"/>
</svg>
