<svg width="11" height="10" viewBox="0 0 11 10" fill="none" xmlns="http://www.w3.org/2000/svg">
<path d="M10.766 4.71116C10.766 4.88955 10.6951 5.06063 10.569 5.18678C10.4428 5.31292 10.2717 5.38378 10.0933 5.38378L2.29756 5.38378L5.18987 8.26936C5.31653 8.39602 5.38768 8.56781 5.38768 8.74693C5.38768 8.92605 5.31653 9.09784 5.18987 9.22449C5.06321 9.35115 4.89143 9.42231 4.7123 9.42231C4.53318 9.42231 4.36139 9.35115 4.23474 9.22449L0.198962 5.18872C0.135918 5.12619 0.0858785 5.0518 0.05173 4.96983C0.0175815 4.88787 0 4.79995 0 4.71116C0 4.62236 0.0175815 4.53444 0.05173 4.45248C0.0858785 4.37051 0.135918 4.29612 0.198962 4.23359L4.23474 0.197815C4.29745 0.1351 4.3719 0.0853516 4.45385 0.0514105C4.53579 0.0174695 4.62361 1.32162e-09 4.7123 0C4.80099 -1.32162e-09 4.88882 0.0174695 4.97076 0.0514105C5.0527 0.0853516 5.12715 0.1351 5.18987 0.197815C5.25258 0.26053 5.30233 0.334983 5.33627 0.416924C5.37021 0.498865 5.38768 0.586689 5.38768 0.675381C5.38768 0.764074 5.37021 0.851897 5.33627 0.933838C5.30233 1.01578 5.25258 1.09023 5.18987 1.15295L2.29756 4.03853L10.0933 4.03853C10.2717 4.03853 10.4428 4.10939 10.569 4.23553C10.6951 4.36168 10.766 4.53276 10.766 4.71116Z" fill="#E3A127"/>
</svg>
